<svg width="29" height="28" viewBox="0 0 29 28" fill="none" xmlns="http://www.w3.org/2000/svg">
<path d="M23.7174 10.8295L22.412 11.3905C22.1946 11.4875 21.9762 11.571 21.7576 11.6538L21.1016 11.9041C20.8695 11.9901 20.6374 12.0845 20.4041 12.1618C20.1707 12.2375 19.9373 12.3086 19.7038 12.3753C19.3923 12.461 19.0811 12.5524 18.7693 12.6323L17.8329 12.852C17.2092 13.0096 16.5832 13.1167 15.958 13.2394L15.489 13.3285L13.8453 13.5812L13.1401 13.6634L12.1998 13.7767L11.041 13.8744C10.8478 13.8897 10.6547 13.9106 10.4615 13.9218L9.88173 13.9485C9.49518 13.964 9.10867 13.9909 8.72204 13.9981L7.56204 14.0072C6.01549 13.9934 4.46817 13.9229 2.92369 13.7273C2.69061 13.7027 2.45605 13.6888 2.22199 13.68C1.98805 13.6652 1.75543 13.6504 1.52414 13.6357C1.08211 13.6105 0.791478 13.7061 0.60715 13.8577C0.338667 14.0777 0.587234 14.3996 1.21278 14.583C1.41061 14.6405 1.61812 14.6894 1.82757 14.731C1.93237 14.7501 2.03758 14.7692 2.14227 14.7883C2.2472 14.8001 2.35162 14.8119 2.45453 14.8235C2.92859 14.8725 3.40231 14.9215 3.87568 14.9704C4.34935 15.0045 4.82267 15.0441 5.29563 15.0894C5.53208 15.1167 5.76876 15.1235 6.00534 15.1412L6.71504 15.1928C7.18815 15.2388 7.66147 15.2515 8.13503 15.2834C8.39638 15.2987 8.66318 15.3238 8.92819 15.3315C9.19317 15.3332 9.4564 15.326 9.7105 15.2959C10.5223 15.2149 11.3358 15.1234 12.1504 15.0613L13.3712 14.9165C13.5745 14.8898 13.778 14.8684 13.9809 14.8342L15.4935 14.5511C15.7949 14.4874 16.0966 14.4237 16.3984 14.3599L17.3036 14.1661C17.6046 14.0878 17.9055 14.0095 18.2062 13.9312C18.4741 13.8578 18.7424 13.7918 19.0099 13.7118L19.8115 13.462L20.6129 13.2096L22.2105 12.6399L23.8025 12.0041C24.0676 11.896 24.3306 11.7645 24.5948 11.646C24.8053 11.549 25.0121 11.4479 25.215 11.3427C25.3162 11.2883 25.4165 11.2345 25.5158 11.1811C25.6146 11.1225 25.7119 11.0602 25.8082 10.9982C26.1931 10.7498 26.558 10.4819 26.8974 10.1987C27.2103 9.9435 27.1681 9.76027 26.7812 9.81773C26.7128 9.82882 26.644 9.83996 26.5749 9.85116C26.506 9.86469 26.4378 9.88814 26.3688 9.90688L25.9532 10.0317C25.6753 10.1215 25.3945 10.2122 25.1143 10.3027C24.6542 10.4537 24.1865 10.6588 23.7233 10.8492C23.7214 10.8428 23.7196 10.8369 23.7174 10.8295Z" fill="white"/>
<path d="M18.3834 8.89445C19.2334 9.3166 20.0931 9.64135 20.9591 9.86734C21.1885 9.92105 21.4183 9.97483 21.6484 10.0287C21.8787 10.0699 22.1087 10.1145 22.3378 10.1664C23.316 10.3585 24.2967 10.4398 25.2746 10.4441C26.2527 10.446 27.2283 10.3798 28.2014 10.2813L28.0449 8.88845C27.933 8.99251 27.8246 9.11345 27.7147 9.2274L27.5504 9.40068C27.523 9.42916 27.4959 9.45942 27.4681 9.48646C27.4424 9.52342 27.415 9.5523 27.3886 9.58562C27.3349 9.64878 27.2826 9.71796 27.2279 9.77632L27.0637 9.95041C26.9541 10.0654 26.843 10.174 26.7328 10.2862C25.3761 11.6463 24.0082 12.9543 22.6454 14.2874C21.963 14.9488 21.2833 15.6235 20.6034 16.2971L18.5635 18.3173C18.1532 18.7234 17.7464 19.1689 17.3484 19.6043C16.9673 20.0218 16.7405 20.3861 16.6163 20.6905C16.4354 21.1333 16.714 21.1449 17.2791 20.6697C17.6366 20.3687 18.0192 20.0009 18.3782 19.6385C19.2048 18.8046 20.034 17.9896 20.8659 17.1935C21.282 16.7954 21.6991 16.4025 22.1171 16.0146C22.5343 15.623 22.9525 15.2361 23.3718 14.854C23.8345 14.4322 24.3193 14.0085 24.7573 13.5399C25.917 12.3123 27.1 11.1598 28.3089 10.147C28.3752 10.0915 28.4301 9.9871 28.4639 9.85241C28.4977 9.71773 28.5082 9.56153 28.4935 9.41169C28.4789 9.26185 28.44 9.12811 28.3838 9.03434C28.3276 8.94058 28.2578 8.89288 28.1869 8.89976L28.169 8.90175C27.8996 8.92894 27.6305 8.95956 27.3619 8.99359C26.2057 9.13315 25.0434 9.15765 23.8896 9.10131C22.8617 9.06049 21.8359 8.88962 20.8174 8.58958C19.7994 8.28132 18.7924 7.82478 17.8031 7.22313C17.4095 6.97164 17.0223 6.76091 16.6505 6.5495C16.5572 6.4992 16.4645 6.45157 16.3724 6.40661C16.3261 6.38517 16.2801 6.36388 16.2344 6.34273C16.189 6.31975 16.1438 6.29692 16.0989 6.27422C15.9195 6.18194 15.7404 6.11356 15.5675 6.04001C15.249 5.9072 15.2316 6.11255 15.5543 6.54473C15.6116 6.6206 15.6692 6.69692 15.7272 6.7737C15.7858 6.84721 15.8473 6.90656 15.9079 6.97355C15.9688 7.03835 16.03 7.10339 16.0915 7.16869C16.1538 7.22949 16.2164 7.2905 16.2797 7.34843C16.4067 7.46329 16.5341 7.57862 16.6621 7.69442C16.7904 7.80844 16.9187 7.92437 17.0504 8.01977C17.2656 8.18396 17.4861 8.33631 17.7082 8.48223C17.9328 8.6112 18.1581 8.7407 18.3821 8.86936L18.3834 8.89445Z" fill="white"/>
</svg>
