<svg width="29" height="28" viewBox="0 0 29 28" fill="none" xmlns="http://www.w3.org/2000/svg">
<path d="M8.95 15.9741L10.5783 14.8183C11.0173 14.5025 11.5104 14.2701 12.0333 14.1324C12.6433 13.9699 12.9167 13.6366 12.9167 12.9258C12.9167 11.1216 17.0833 10.9299 17.0833 12.9258C17.0833 13.6366 17.3567 13.9699 17.9667 14.1316C18.5017 14.2749 18.9667 14.4941 19.4217 14.8183L21.05 15.9733C21.7858 16.4966 22.1292 16.7491 22.32 17.1516C22.5 17.5299 22.5 17.9733 22.5 18.8599C22.5 20.4549 22.5 21.2524 22.0533 21.7633C21.5125 22.3824 20.1067 22.3299 19.2433 22.3299H10.7567C9.89333 22.3299 8.51583 22.4158 7.94667 21.7633C7.5 21.2524 7.5 20.4549 7.5 18.8599C7.5 17.9733 7.5 17.5299 7.68 17.1516C7.87167 16.7499 8.21333 16.4966 8.95 15.9733" stroke="#E8635E" stroke-width="1.25" stroke-linecap="round" stroke-linejoin="round"/>
<path d="M10.8 7.08162C9.70164 7.39495 8.91164 7.78412 8.18831 8.25412C7.04414 8.99745 6.55331 10.3366 6.68831 11.6291C6.74498 12.1758 7.18414 12.4374 7.69248 12.2958C8.07914 12.1874 8.46581 12.0833 8.84998 11.97C9.97248 11.6366 10.2366 11.2316 10.3925 10.0824L10.8 7.08162ZM10.8 7.08162C13.5158 6.30662 16.4841 6.30662 19.2 7.08162M19.2 7.08162C20.2983 7.39495 21.0883 7.78412 21.8116 8.25412C22.9558 8.99745 23.4466 10.3366 23.3116 11.6291C23.255 12.1758 22.8158 12.4374 22.3075 12.2958C21.9216 12.1874 21.5341 12.0833 21.15 11.97C20.0275 11.6366 19.7633 11.2316 19.6075 10.0824L19.2 7.08162ZM16.6666 18.1666C16.6666 18.6086 16.491 19.0326 16.1785 19.3451C15.8659 19.6577 15.442 19.8333 15 19.8333C14.5579 19.8333 14.134 19.6577 13.8215 19.3451C13.5089 19.0326 13.3333 18.6086 13.3333 18.1666C13.3333 17.7246 13.5089 17.3007 13.8215 16.9881C14.134 16.6755 14.5579 16.5 15 16.5C15.442 16.5 15.8659 16.6755 16.1785 16.9881C16.491 17.3007 16.6666 17.7246 16.6666 18.1666Z" stroke="#E8635E" stroke-width="1.25" stroke-linecap="round" stroke-linejoin="round"/>
</svg>
